# AST/ASF file generated using VICON BodyLanguage
# -----------------------------------------------
:version 1.10
:name VICON
:units
  mass 1.0
  length 0.45
  angle deg
:documentation
   .ast/.asf automatically generated from VICON data using
   VICON BodyBuilder and BodyLanguage model FoxedUp or BRILLIANT.MOD
:root
   order TX TY TZ RX RY RZ
   axis XYZ
   position 0 0 0  
   orientation 0 0 0 
:bonedata
  begin
     id 1 
     name lhipjoint
     direction 0.523584 -0.783993 0.333487 
     length 2.44404 
     axis 0 0 0  XYZ
  end
  begin
     id 2 
     name lfemur
     direction 0.34202 -0.939693 0  
     length 7.29523  
     axis 0 0 20  XYZ
    dof rx ry rz
    limits (-160.0 20.0)
           (-70.0 70.0)
           (-60.0 70.0)
  end
  begin
     id 3 
     name ltibia
     direction 0.34215 -0.939645 0   
     length 7.81194   
     axis 0 0 20   XYZ
    dof rx
    limits (-10.0 170.0)
  end
  begin
     id 4 
     name lfoot
     direction 0.0941847 -0.25877 0.961336   
     length 2.41437   
     axis -90 7.62852e-016 20   XYZ
    dof rx rz
    limits (-45.0 90.0)
           (-70.0 20.0)
  end
  begin
     id 5 
     name ltoes
     direction 1.53526e-011 -4.21768e-011 1   
     length 1.2048   
     axis -90 7.62852e-016 20   XYZ
    dof rx
    limits (-90.0 20.0)
  end
  begin
     id 6 
     name rhipjoint
     direction -0.46599 -0.814191 0.346332   
     length 2.35339  
     axis 0 0 0  XYZ 
  end
  begin
     id 7 
     name rfemur
     direction -0.34202 -0.939693 0   
     length 7.34966   
     axis 0 0 -20   XYZ
    dof rx ry rz
    limits (-160.0 20.0)
           (-70.0 70.0)
           (-70.0 60.0)
  end
  begin
     id 8 
     name rtibia
     direction -0.34202 -0.939693 0   
     length 7.89934   
     axis 0 0 -20   XYZ
    dof rx
    limits (-10.0 170.0)
 end
 begin
     id 9 
     name rfoot
     direction -0.0975468 -0.268008 0.958466   
     length 2.27725  
     axis -90 -7.62852e-016 -20   XYZ
    dof rx rz
    limits (-45.0 90.0)
           (-20.0 70.0)
  end
  begin
     id 10 
     name rtoes
     direction -1.53563e-011 -4.22022e-011 1   
     length 1.13683   
     axis -90 -7.62852e-016 -20   XYZ
    dof rx
    limits (-90.0 20.0)
  end
  begin
     id 11 
     name lowerback
     direction -0.00456414 0.999242 -0.0386661   
     length 2.16968   
     axis 0 0 0   XYZ
    dof rx ry rz
    limits (-20.0 45.0)
           (-30.0 30.0)
           (-30.0 30.0)
  end
  begin
     id 12 
     name upperback
     direction 0.0297078 0.998988 0.0337799   
     length 2.15674   
     axis 0 0 0   XYZ
    dof rx ry rz
    limits (-20.0 45.0)
           (-30.0 30.0)
           (-30.0 30.0)
  end
  begin
     id 13 
     name thorax
     direction 0.0309305 0.998202 0.0513506   
     length 2.16319   
     axis 0 0 0   XYZ
    dof rx ry rz
    limits (-20.0 45.0)
           (-30.0 30.0)
           (-30.0 30.0)
  end
  begin
     id 14 
     name lowerneck
     direction -0.103039 0.983474 0.148872   
     length 1.64318   
     axis 0 0 0   XYZ
    dof rx ry rz
    limits (-20.0 45.0)
           (-30.0 30.0)
           (-30.0 30.0)
  end
  begin
     id 15 
     name upperneck
     direction 0.128124 0.971079 -0.201469   
     length 1.68242   
     axis 0 0 0   XYZ
    dof rx ry rz
    limits (-20.0 45.0)
           (-30.0 30.0)
           (-30.0 30.0)
  end
  begin
     id 16
     name head
     direction 0.0496365 0.994919 -0.0875941  
     length 1.70108  
     axis 0 0 0   XYZ
    dof rx ry rz
    limits (-20.0 45.0)
           (-30.0 30.0)
           (-30.0 30.0)
  end
  begin
     id 17 
     name lclavicle
     direction 0.887148 0.430222 -0.166967  
     length 3.25763  
     axis 0 0 0   XYZ
    dof ry rz
    limits (-20.0 10.0)
           (0.0 20.0)
  end
  begin
     id 18 
     name lhumerus
     direction 1 -4.48962e-011 1.92156e-027   
     length 5.10755   
     axis 180 -30 -90   XYZ
    dof rx ry rz
    limits (-60.0 90.0)
           (-90.0 90.0)
           (-90.0 90.0)
  end
  begin
     id 19
     name lradius
     direction 1 -4.48958e-011 7.10963e-027   
     length 3.36253   
     axis 180 -30 -90   XYZ
    dof rx
    limits (-10.0 170.0)
  end
  begin
     id 20
     name lwrist
     direction 1 -4.48946e-011 1.82396e-026   
     length 1.68127   
     axis -1.15222e-014 90 90   XYZ
    dof ry
    limits (-180.0 0.0)
 end
  begin
     id 21 
     name lhand
     direction 1 -4.48919e-011 3.64759e-026   
     length 0.619088   
     axis -2.32787e-014 90 90   XYZ
    dof rx rz
    limits (-90.0 90.0)
           (-45.0 45.0)
  end
  begin
     id 22 
     name lfingers
     direction 1 -4.49012e-011 7.29744e-026   
     length 0.499125   
     axis -4.6558e-014 90 90   XYZ
    dof rx
    limits (0.0 90.0)
  end
  begin
     id 23
     name lthumb
     direction 0.707107 -6.35028e-011 0.707107   
     length 0.716646   
     axis -90 45 3.78391e-014   XYZ
    dof rx rz
    limits (-45.0 45.0)
           (-45.0 45.0)
  end
  begin
     id 24 
     name rclavicle
     direction -0.82886 0.533198 -0.169384   
     length 3.20647  
     axis 0 0 0   XYZ 
    dof ry rz
    limits (-10.0 20.0)
           (-20.0 0.0)
  end
  begin
     id 25 
     name rhumerus
     direction -1 -4.48973e-011 3.06863e-027  
     length 5.27387   
     axis 180 30 90   XYZ
    dof rx ry rz
    limits (-90.0 60.0)
           (-90.0 90.0)
           (-90.0 90.0)
  end
  begin
     id 26 
     name rradius
     direction -1 -4.48988e-011 9.4797e-027   
     length 3.40144   
     axis 180 30 90   XYZ
    dof rx
    limits (-10.0 170.0)
  end
  begin
     id 27 
     name rwrist
     direction -1 -4.48897e-011 1.82366e-026   
     length 1.70072   
     axis -1.15222e-014 -90 -90   XYZ
    dof ry
    limits (-180.0 0.0)
  end
  begin
     id 28
     name rhand
     direction -1 -4.48965e-011 3.64815e-026   
     length 0.742821   
     axis -2.32787e-014 -90 -90   XYZ
    dof rx rz
    limits (-90.0 90.0)
           (-45.0 45.0)
  end
  begin
     id 29
     name rfingers
     direction -1 -4.49016e-011 7.29754e-026   
     length 0.598881   
     axis -4.6558e-014 -90 -90   XYZ
    dof rx
    limits (0.0 90.0)
  end
  begin
     id 30
     name rthumb
     direction -0.707107 -6.3488e-011 0.707107   
     length 0.859877   
     axis -90 -45 -3.78391e-014   XYZ
    dof rx rz
    limits (-45.0 45.0)
           (-45.0 45.0)
  end
:hierarchy
  begin
    root lhipjoint rhipjoint lowerback
    lhipjoint lfemur
    lfemur ltibia
    ltibia lfoot
    lfoot ltoes
    rhipjoint rfemur
    rfemur rtibia
    rtibia rfoot
    rfoot rtoes
    lowerback upperback
    upperback thorax
    thorax lowerneck lclavicle rclavicle
    lowerneck upperneck
    upperneck head
    lclavicle lhumerus
    lhumerus lradius
    lradius lwrist
    lwrist lhand lthumb
    lhand lfingers
    rclavicle rhumerus
    rhumerus rradius
    rradius rwrist
    rwrist rhand rthumb
    rhand rfingers
  end

#!OML:ASF F:\Work\Patient Classification 1\justin\Session 1\justin.ASF
:FULLY-SPECIFIED
:DEGREES
1217
root -4.06476 17.946 -9.47023 178.928 -2.78447 -179.043
lowerback 9.77972 1.55744 -1.43682
upperback 1.11973 1.89467 3.80406
thorax -4.49957 0.909229 4.54097
lowerneck -16.8319 3.06921 -11.8769
upperneck 36.8627 3.85009 4.60246
head 15.3942 -0.523083 4.41766
rclavicle 1.23246e-014 8.74653e-015
rhumerus -28.5821 -10.5113 -72.3969
rradius 29.5056
rwrist -0.221865
rhand -25.521 10.7287
rfingers 7.12502
rthumb 1.00839 -19.2487
lclavicle 1.23246e-014 8.74653e-015
lhumerus -41.7389 11.1072 84.1805
lradius 32.2704
lwrist -6.3908
lhand -5.57398 28.7545
lfingers 7.12502
lthumb 20.2418 57.7198
rfemur -2.20007 -13.4061 21.5428
rtibia 45.0325
rfoot -11.2715 -3.63377
rtoes -28.307
lfemur -17.6813 17.7872 -28.4411
ltibia 28.3708
lfoot -9.03514 12.9208
ltoes -6.79835
1218
root -4.04922 17.9425 -9.56531 178.714 -3.77376 -179.093
lowerback 9.91077 1.51019 -1.30475
upperback 1.0357 1.85347 3.70179
thorax -4.6489 0.892601 4.36117
lowerneck -16.3017 3.20972 -12.0098
upperneck 36.6669 3.98791 4.73524
head 15.1464 -0.444554 4.49506
rclavicle 7.7526e-015 3.65764e-014
rhumerus -28.6696 -11.4216 -72.2437
rradius 28.6429
rwrist 0.204268
rhand -25.7551 10.6469
rfingers 7.12502
rthumb 0.782295 -19.3314
lclavicle 7.7526e-015 3.65764e-014
lhumerus -41.7287 10.8267 83.9893
lradius 32.8961
lwrist -5.98161
lhand -5.67003 29.3401
lfingers 7.12502
lthumb 20.1495 58.3152
rfemur -2.87648 -14.0575 21.2108
rtibia 47.0154
rfoot -9.15891 -2.96484
rtoes -26.3932
lfemur -17.0371 17.1669 -28.3177
ltibia 28.376
lfoot -9.32223 12.6976
ltoes -7.00525
1219
root -4.03591 17.9398 -9.66322 178.477 -4.77336 -179.097
lowerback 9.9334 1.4667 -1.15093
upperback 1.17606 1.80037 3.66396
thorax -4.50362 0.856491 4.24103
lowerneck -16.581 3.26284 -12.1872
upperneck 36.6459 4.26549 4.69498
head 15.1698 -0.33316 4.56516
rclavicle 2.98177e-016 0
rhumerus -28.8161 -12.0507 -72.2319
rradius 28.7969
rwrist 0.0602092
rhand -25.7222 10.0356
rfingers 7.12502
rthumb 0.814036 -19.9426
lclavicle 2.98177e-016 0
lhumerus -41.2588 10.837 83.8305
lradius 33.2567
lwrist -5.58342
lhand -6.26994 28.3714
lfingers 7.12502
lthumb 19.5728 57.4062
rfemur -3.58561 -14.6855 20.8852
rtibia 48.972
rfoot -6.83578 -2.30812
rtoes -23.0464
lfemur -16.3565 16.6415 -28.1728
ltibia 28.3729
lfoot -9.5444 12.4357
ltoes -7.27122
1220
root -4.02896 17.9378 -9.76104 178.272 -5.85239 -179.172
lowerback 9.69331 1.41536 -0.996906
upperback 1.45281 1.72619 3.59834
thorax -4.06732 0.803705 4.09754
lowerneck -17.0998 3.34863 -12.2788
upperneck 36.6703 4.64784 4.60429
head 15.2639 -0.169209 4.62788
rclavicle 3.05134e-014 1.11319e-014
rhumerus -28.8894 -12.3203 -72.3627
rradius 29.1546
rwrist -0.432885
rhand -25.6956 9.41808
rfingers 7.12502
rthumb 0.839739 -20.56
lclavicle 3.05134e-014 1.11319e-014
lhumerus -40.5547 10.69 83.8374
lradius 33.6758
lwrist -4.78147
lhand -7.43028 27.0233
lfingers 7.12502
lthumb 18.457 56.1677
rfemur -4.37066 -15.4331 20.3915
rtibia 50.917
rfoot -4.5895 -1.54923
rtoes -19.7087
lfemur -15.7035 16.2544 -28.1487
ltibia 28.3956
lfoot -9.88571 11.9508
ltoes -7.42404
1221
root -4.02693 17.9355 -9.85372 178.143 -6.91384 -179.449
lowerback 9.62822 1.31362 -0.991969
upperback 1.37573 1.60238 3.39627
thorax -4.0952 0.750079 3.89844
lowerneck -16.7533 3.64458 -11.7857
upperneck 36.8446 4.87001 4.50648
head 15.2545 -0.0428039 4.52889
rclavicle 2.10712e-014 2.70347e-014
rhumerus -29.3946 -12.3718 -72.4908
rradius 28.8523
rwrist -1.01427
rhand -25.8879 10.6135
rfingers 7.12502
rthumb 0.654044 -19.3653
lclavicle 2.10712e-014 2.70347e-014
lhumerus -40.6604 10.002 83.8172
lradius 34.6734
lwrist -3.45637
lhand -8.19865 26.4766
lfingers 7.12502
lthumb 17.7177 55.6894
rfemur -5.20886 -16.1174 19.6513
rtibia 52.8435
rfoot -2.79894 -0.620004
rtoes -17.72
lfemur -15.1136 15.819 -28.3575
ltibia 28.4221
lfoot -10.376 11.4256
ltoes -6.67689
1222
root -4.01901 17.9306 -9.94194 177.966 -7.96092 -179.601
lowerback 9.82353 1.36144 -0.847859
upperback 1.41546 1.67844 3.30215
thorax -4.16105 0.785371 3.70516
lowerneck -17.1669 3.62299 -11.5967
upperneck 37.1772 4.92049 4.34608
head 15.5262 -0.038544 4.46775
rclavicle -6.16232e-015 3.18055e-015
rhumerus -29.5874 -12.8753 -72.3045
rradius 28.4198
rwrist -1.27431
rhand -26.073 11.5496
rfingers 7.12502
rthumb 0.47528 -18.4296
lclavicle -6.16232e-015 3.18055e-015
lhumerus -40.2497 9.28188 84.0913
lradius 35.6941
lwrist -2.61242
lhand -7.7897 26.6955
lfingers 7.12502
lthumb 18.1112 55.8723
rfemur -5.93836 -16.6018 19.1823
rtibia 54.7109
rfoot -1.54307 0.312342
rtoes -17.9201
lfemur -14.4831 15.4168 -28.3891
ltibia 28.3685
lfoot -10.6302 10.8684
ltoes -6.63812
1223
root -3.99591 17.9266 -10.0253 177.792 -9.01205 -179.6
lowerback 9.97988 1.4021 -0.761946
upperback 1.54562 1.73122 3.27016
thorax -4.11234 0.804939 3.61419
lowerneck -18.0174 3.64506 -11.4829
upperneck 37.6261 5.13709 4.26535
head 15.9409 0.033811 4.50432
rclavicle -3.78685e-014 -8.74653e-015
rhumerus -29.6474 -12.8365 -72.4478
rradius 28.4299
rwrist -1.80933
rhand -26.4155 11.3709
rfingers 7.12502
rthumb 0.144428 -18.6088
lclavicle -3.78685e-014 -8.74653e-015
lhumerus -39.5153 9.0984 84.0822
lradius 36.389
lwrist -2.50447
lhand -7.2633 26.6704
lfingers 7.12502
lthumb 18.6176 55.7995
rfemur -6.74509 -16.7966 19.1186
rtibia 56.5069
rfoot -0.743672 0.799791
rtoes -18.0056
lfemur -13.9102 15.1465 -28.1941
ltibia 28.2381
lfoot -10.6964 10.1532
ltoes -6.89444
1224
root -3.98225 17.9203 -10.1197 177.755 -10.1722 -180.182
lowerback 9.89431 1.45607 -1.19916
upperback 1.61326 1.75989 3.08588
thorax -4.00366 0.828224 3.66578
lowerneck -18.4363 3.67964 -11.7498
upperneck 37.8916 5.31408 4.49515
head 16.1364 0.0933679 4.71217
rclavicle -1.76918e-014 -2.70347e-014
rhumerus -30.0626 -12.4238 -72.6186
rradius 28.9614
rwrist -2.67434
rhand -26.5508 10.7635
rfingers 7.12502
rthumb 0.0137885 -19.2162
lclavicle -1.76918e-014 -2.70347e-014
lhumerus -39.096 8.66296 84.1804
lradius 37.1639
lwrist -2.34485
lhand -7.22127 26.5557
lfingers 7.12502
lthumb 18.658 55.6809
rfemur -7.56094 -17.1406 18.2347
rtibia 58.2601
rfoot -0.151832 1.06507
rtoes -16.7433
lfemur -13.3018 14.9568 -28.6682
ltibia 28.1167
lfoot -10.923 9.2988
ltoes -6.54198
1225
root -3.98759 17.9026 -10.2209 177.718 -11.5334 -181.133
lowerback 9.80423 1.42511 -1.80219
upperback 1.6163 1.66404 2.76336
thorax -3.95077 0.796145 3.68294
lowerneck -17.924 3.78005 -11.512
upperneck 37.5664 5.49907 4.06822
head 15.8607 0.183406 4.48323
rclavicle -5.96354e-015 2.22639e-014
rhumerus -30.7291 -12.1677 -72.7092
rradius 29.5346
rwrist -2.97501
rhand -26.2282 10.1054
rfingers 7.12502
rthumb 0.325389 -19.8741
lclavicle -5.96354e-015 2.22639e-014
lhumerus -38.9791 7.87379 84.4282
lradius 38.1998
lwrist -1.47126
lhand -7.4383 26.8307
lfingers 7.12502
lthumb 18.4492 55.9758
rfemur -8.07579 -17.7902 16.6216
rtibia 59.9498
rfoot -1.24734 1.34151
rtoes -19.5578
lfemur -12.4773 14.8258 -29.5909
ltibia 27.9622
lfoot -11.1932 8.29822
ltoes -6.13935
1226
root -3.97291 17.8897 -10.3105 177.608 -12.8719 -181.625
lowerback 9.92775 1.37996 -2.18288
upperback 1.54825 1.56977 2.60001
thorax -4.08862 0.762361 3.73818
lowerneck -17.7823 4.03549 -11.3177
upperneck 37.3962 6.03135 3.59258
head 15.7216 0.392378 4.32043
rclavicle 6.40087e-014 3.02153e-014
rhumerus -31.4426 -12.0151 -72.7823
rradius 29.744
rwrist -2.7939
rhand -25.906 11.0583
rfingers 7.12502
rthumb 0.636507 -18.9205
lclavicle 6.40087e-014 3.02153e-014
lhumerus -38.7755 7.3956 84.5813
lradius 39.04
lwrist -0.500715
lhand -7.98778 26.8975
lfingers 7.12502
lthumb 17.9206 56.0919
rfemur -8.65984 -18.029 15.8349
rtibia 61.5422
rfoot -1.97951 1.01089
rtoes -19.4936
lfemur -11.7225 14.6825 -29.9215
ltibia 27.7551
lfoot -11.2868 7.28268
ltoes -6.37625
1227
root -3.94138 17.8854 -10.3936 177.598 -14.2815 -182.031
lowerback 10.1398 1.37161 -2.63519
upperback 1.45951 1.51437 2.51823
thorax -4.30434 0.750511 3.91395
lowerneck -18.066 4.00144 -11.5379
upperneck 37.507 6.18428 3.50822
head 15.8308 0.412395 4.36511
rclavicle -2.6985e-014 -3.26007e-014
rhumerus -31.9037 -11.7641 -72.8311
rradius 29.6018
rwrist -3.04803
rhand -25.5308 12.5359
rfingers 7.12502
rthumb 0.998886 -17.4415
lclavicle -2.6985e-014 -3.26007e-014
lhumerus -38.3891 7.03041 84.7885
lradius 39.7747
lwrist 0.0913818
lhand -8.65947 26.479
lfingers 7.12502
lthumb 17.2742 55.7313
rfemur -9.37893 -18.0868 15.4138
rtibia 62.9996
rfoot -1.97517 0.247705
rtoes -16.6015
lfemur -11.1511 14.3179 -30.0832
ltibia 27.6669
lfoot -11.475 6.26132
ltoes -6.59116
1228
root -3.91277 17.8819 -10.4711 177.641 -15.6756 -182.285
lowerback 10.2908 1.34508 -2.84487
upperback 1.41744 1.45583 2.44786
thorax -4.4306 0.729751 3.96558
lowerneck -18.1544 4.04098 -11.4456
upperneck 37.4469 6.36503 3.28973
head 15.8233 0.490039 4.29028
rclavicle 6.25178e-014 -4.29375e-014
rhumerus -31.9791 -11.2914 -73.0595
rradius 29.2592
rwrist -3.32945
rhand -25.435 13.4304
rfingers 7.12502
rthumb 1.09141 -16.5466
lclavicle 6.25178e-014 -4.29375e-014
lhumerus -38.0267 6.39381 85.0623
lradius 40.7912
lwrist 0.989585
lhand -9.28788 26.041
lfingers 7.12502
lthumb 16.6693 55.3452
rfemur -10.2218 -18.1032 15.1733
rtibia 64.3116
rfoot -1.48434 -0.405834
rtoes -11.666
lfemur -10.6169 13.4818 -30.0845
ltibia 27.6589
lfoot -11.8932 5.36196
ltoes -4.56384
1229
root -3.88235 17.8887 -10.548 177.527 -16.8193 -182.088
lowerback 10.4397 1.36192 -2.67639
upperback 1.37524 1.49725 2.5136
thorax -4.55891 0.750526 3.93143
lowerneck -18.0173 4.23856 -11.3431
upperneck 37.4468 6.64306 3.2719
head 15.7649 0.630559 4.30733
rclavicle -2.48481e-015 7.95139e-016
rhumerus -32.1492 -10.9046 -73.2649
rradius 29.0658
rwrist -2.66608
rhand -25.7262 13.9928
rfingers 7.12502
rthumb 0.810222 -15.9854
lclavicle -2.48481e-015 7.95139e-016
lhumerus -37.7524 6.00698 85.2177
lradius 41.7029
lwrist 1.62642
lhand -9.55989 25.7082
lfingers 7.12502
lthumb 16.4074 55.0343
rfemur -11.1539 -17.7501 15.514
rtibia 65.448
rfoot -3.17965 -1.61257
rtoes -15.542
lfemur -10.2554 12.975 -29.6574
ltibia 27.6262
lfoot -11.9803 4.74601
ltoes -5.15258
1230
root -3.85019 17.8917 -10.6416 177.409 -18.312 -182.205
lowerback 10.3068 1.30536 -2.95894
upperback 1.51662 1.3899 2.57415
thorax -4.3358 0.694288 4.1734
lowerneck -18.1155 4.3243 -11.5744
upperneck 37.4429 6.87264 3.41354
head 15.7438 0.732648 4.45227
rclavicle -4.71617e-014 7.95139e-016
rhumerus -32.2119 -10.7241 -73.362
rradius 28.9531
rwrist -1.93726
rhand -25.318 14.1872
rfingers 7.12502
rthumb 1.20444 -15.7891
lclavicle -4.71617e-014 7.95139e-016
lhumerus -37.2495 5.99588 85.3664
lradius 42.5558
lwrist 1.57879
lhand -9.52543 26.0817
lfingers 7.12502
lthumb 16.4406 55.405
rfemur -11.7342 -17.6192 15.4205
rtibia 66.4172
rfoot -4.04005 -2.58451
rtoes -15.4554
lfemur -9.64341 12.4059 -29.4875
ltibia 27.5501
lfoot -12.1436 3.90016
ltoes -5.19015
1231
root -3.83107 17.8878 -10.7261 177.457 -19.5813 -182.565
lowerback 10.1354 1.27835 -3.35361
upperback 1.64679 1.31167 2.53326
thorax -4.10474 0.654179 4.36784
lowerneck -18.3975 4.32303 -11.829
upperneck 37.4653 7.03741 3.49898
head 15.7907 0.792069 4.57606
rclavicle 4.17448e-015 3.18055e-015
rhumerus -32.1518 -10.4448 -73.5433
rradius 28.716
rwrist -1.43781
rhand -24.7587 14.7123
rfingers 7.12502
rthumb 1.74463 -15.2603
lclavicle 4.17448e-015 3.18055e-015
lhumerus -36.9724 5.85313 85.5659
lradius 43.9945
lwrist 1.97871
lhand -10.1594 25.5358
lfingers 7.12502
lthumb 15.8301 54.9086
rfemur -12.4266 -17.2811 14.9343
rtibia 67.2841
rfoot -3.93113 -3.41533
rtoes -11.8586
lfemur -9.17863 11.7177 -29.7009
ltibia 27.5047
lfoot -12.2793 3.45955
ltoes -5.88477
